<svg width="379" height="66" viewBox="0 0 379 66" fill="none" xmlns="http://www.w3.org/2000/svg">
<rect width="379" height="66" rx="28" fill="#0B102E"/>
<path d="M42.84 23.09V38.54C42.84 40.26 42.31 41.64 41.25 42.68C40.19 43.7 38.79 44.21 37.05 44.21C35.29 44.21 33.88 43.69 32.82 42.65C31.76 41.59 31.23 40.15 31.23 38.33H33.96C33.98 39.35 34.24 40.18 34.74 40.82C35.26 41.46 36.03 41.78 37.05 41.78C38.07 41.78 38.83 41.48 39.33 40.88C39.83 40.26 40.08 39.48 40.08 38.54V23.09H42.84ZM63.9682 35.15C63.9682 35.67 63.9382 36.22 63.8782 36.8H50.7382C50.8382 38.42 51.3882 39.69 52.3882 40.61C53.4082 41.51 54.6382 41.96 56.0782 41.96C57.2582 41.96 58.2382 41.69 59.0182 41.15C59.8182 40.59 60.3782 39.85 60.6982 38.93H63.6382C63.1982 40.51 62.3182 41.8 60.9982 42.8C59.6782 43.78 58.0382 44.27 56.0782 44.27C54.5182 44.27 53.1182 43.92 51.8782 43.22C50.6582 42.52 49.6982 41.53 48.9982 40.25C48.2982 38.95 47.9482 37.45 47.9482 35.75C47.9482 34.05 48.2882 32.56 48.9682 31.28C49.6482 30 50.5982 29.02 51.8182 28.34C53.0582 27.64 54.4782 27.29 56.0782 27.29C57.6382 27.29 59.0182 27.63 60.2182 28.31C61.4182 28.99 62.3382 29.93 62.9782 31.13C63.6382 32.31 63.9682 33.65 63.9682 35.15ZM61.1482 34.58C61.1482 33.54 60.9182 32.65 60.4582 31.91C59.9982 31.15 59.3682 30.58 58.5682 30.2C57.7882 29.8 56.9182 29.6 55.9582 29.6C54.5782 29.6 53.3982 30.04 52.4182 30.92C51.4582 31.8 50.9082 33.02 50.7682 34.58H61.1482ZM71.6517 29.81V39.5C71.6517 40.3 71.8217 40.87 72.1617 41.21C72.5017 41.53 73.0917 41.69 73.9317 41.69H75.9417V44H73.4817C71.9617 44 70.8217 43.65 70.0617 42.95C69.3017 42.25 68.9217 41.1 68.9217 39.5V29.81H66.7917V27.56H68.9217V23.42H71.6517V27.56H75.9417V29.81H71.6517ZM82.0395 41.75H90.1095V44H78.9195V41.75L86.8995 29.78H78.9795V27.56H90.0495V29.78L82.0395 41.75ZM97.7318 29.81V39.5C97.7318 40.3 97.9018 40.87 98.2418 41.21C98.5818 41.53 99.1718 41.69 100.012 41.69H102.022V44H99.5618C98.0418 44 96.9018 43.65 96.1418 42.95C95.3818 42.25 95.0018 41.1 95.0018 39.5V29.81H92.8718V27.56H95.0018V23.42H97.7318V27.56H102.022V29.81H97.7318ZM134.598 27.26C135.878 27.26 137.018 27.53 138.018 28.07C139.018 28.59 139.808 29.38 140.388 30.44C140.968 31.5 141.258 32.79 141.258 34.31V44H138.558V34.7C138.558 33.06 138.148 31.81 137.328 30.95C136.528 30.07 135.438 29.63 134.058 29.63C132.638 29.63 131.508 30.09 130.668 31.01C129.828 31.91 129.408 33.22 129.408 34.94V44H126.708V34.7C126.708 33.06 126.298 31.81 125.478 30.95C124.678 30.07 123.588 29.63 122.208 29.63C120.788 29.63 119.658 30.09 118.818 31.01C117.978 31.91 117.558 33.22 117.558 34.94V44H114.828V27.56H117.558V29.93C118.098 29.07 118.818 28.41 119.718 27.95C120.638 27.49 121.648 27.26 122.748 27.26C124.128 27.26 125.348 27.57 126.408 28.19C127.468 28.81 128.258 29.72 128.778 30.92C129.238 29.76 129.998 28.86 131.058 28.22C132.118 27.58 133.298 27.26 134.598 27.26ZM161.486 35.15C161.486 35.67 161.456 36.22 161.396 36.8H148.256C148.356 38.42 148.906 39.69 149.906 40.61C150.926 41.51 152.156 41.96 153.596 41.96C154.776 41.96 155.756 41.69 156.536 41.15C157.336 40.59 157.896 39.85 158.216 38.93H161.156C160.716 40.51 159.836 41.8 158.516 42.8C157.196 43.78 155.556 44.27 153.596 44.27C152.036 44.27 150.636 43.92 149.396 43.22C148.176 42.52 147.216 41.53 146.516 40.25C145.816 38.95 145.466 37.45 145.466 35.75C145.466 34.05 145.806 32.56 146.486 31.28C147.166 30 148.116 29.02 149.336 28.34C150.576 27.64 151.996 27.29 153.596 27.29C155.156 27.29 156.536 27.63 157.736 28.31C158.936 28.99 159.856 29.93 160.496 31.13C161.156 32.31 161.486 33.65 161.486 35.15ZM158.666 34.58C158.666 33.54 158.436 32.65 157.976 31.91C157.516 31.15 156.886 30.58 156.086 30.2C155.306 29.8 154.436 29.6 153.476 29.6C152.096 29.6 150.916 30.04 149.936 30.92C148.976 31.8 148.426 33.02 148.286 34.58H158.666ZM173.999 27.26C175.239 27.26 176.359 27.53 177.359 28.07C178.359 28.59 179.139 29.38 179.699 30.44C180.279 31.5 180.569 32.79 180.569 34.31V44H177.869V34.7C177.869 33.06 177.459 31.81 176.639 30.95C175.819 30.07 174.699 29.63 173.279 29.63C171.839 29.63 170.689 30.08 169.829 30.98C168.989 31.88 168.569 33.19 168.569 34.91V44H165.839V21.8H168.569V29.9C169.109 29.06 169.849 28.41 170.789 27.95C171.749 27.49 172.819 27.26 173.999 27.26ZM188.509 30.23C188.989 29.29 189.669 28.56 190.549 28.04C191.449 27.52 192.539 27.26 193.819 27.26V30.08H193.099C190.039 30.08 188.509 31.74 188.509 35.06V44H185.779V27.56H188.509V30.23ZM221.468 35.15C221.468 35.67 221.438 36.22 221.378 36.8H208.238C208.338 38.42 208.888 39.69 209.888 40.61C210.908 41.51 212.138 41.96 213.578 41.96C214.758 41.96 215.738 41.69 216.518 41.15C217.318 40.59 217.878 39.85 218.198 38.93H221.138C220.698 40.51 219.818 41.8 218.498 42.8C217.178 43.78 215.538 44.27 213.578 44.27C212.018 44.27 210.618 43.92 209.378 43.22C208.158 42.52 207.198 41.53 206.498 40.25C205.798 38.95 205.448 37.45 205.448 35.75C205.448 34.05 205.788 32.56 206.468 31.28C207.148 30 208.098 29.02 209.318 28.34C210.558 27.64 211.978 27.29 213.578 27.29C215.138 27.29 216.518 27.63 217.718 28.31C218.918 28.99 219.838 29.93 220.478 31.13C221.138 32.31 221.468 33.65 221.468 35.15ZM218.648 34.58C218.648 33.54 218.418 32.65 217.958 31.91C217.498 31.15 216.868 30.58 216.068 30.2C215.288 29.8 214.418 29.6 213.458 29.6C212.078 29.6 210.898 30.04 209.918 30.92C208.958 31.8 208.408 33.02 208.268 34.58H218.648ZM228.552 30.23C229.032 29.29 229.712 28.56 230.592 28.04C231.492 27.52 232.582 27.26 233.862 27.26V30.08H233.142C230.082 30.08 228.552 31.74 228.552 35.06V44H225.822V27.56H228.552V30.23ZM244.453 29.81H241.003V44H238.273V29.81H236.143V27.56H238.273V26.39C238.273 24.55 238.743 23.21 239.683 22.37C240.643 21.51 242.173 21.08 244.273 21.08V23.36C243.073 23.36 242.223 23.6 241.723 24.08C241.243 24.54 241.003 25.31 241.003 26.39V27.56H244.453V29.81ZM247.366 35.72C247.366 34.04 247.706 32.57 248.386 31.31C249.066 30.03 249.996 29.04 251.176 28.34C252.376 27.64 253.706 27.29 255.166 27.29C256.606 27.29 257.856 27.6 258.916 28.22C259.976 28.84 260.766 29.62 261.286 30.56V27.56H264.046V44H261.286V40.94C260.746 41.9 259.936 42.7 258.856 43.34C257.796 43.96 256.556 44.27 255.136 44.27C253.676 44.27 252.356 43.91 251.176 43.19C249.996 42.47 249.066 41.46 248.386 40.16C247.706 38.86 247.366 37.38 247.366 35.72ZM261.286 35.75C261.286 34.51 261.036 33.43 260.536 32.51C260.036 31.59 259.356 30.89 258.496 30.41C257.656 29.91 256.726 29.66 255.706 29.66C254.686 29.66 253.756 29.9 252.916 30.38C252.076 30.86 251.406 31.56 250.906 32.48C250.406 33.4 250.156 34.48 250.156 35.72C250.156 36.98 250.406 38.08 250.906 39.02C251.406 39.94 252.076 40.65 252.916 41.15C253.756 41.63 254.686 41.87 255.706 41.87C256.726 41.87 257.656 41.63 258.496 41.15C259.356 40.65 260.036 39.94 260.536 39.02C261.036 38.08 261.286 36.99 261.286 35.75ZM277.57 27.26C278.81 27.26 279.93 27.53 280.93 28.07C281.93 28.59 282.71 29.38 283.27 30.44C283.85 31.5 284.14 32.79 284.14 34.31V44H281.44V34.7C281.44 33.06 281.03 31.81 280.21 30.95C279.39 30.07 278.27 29.63 276.85 29.63C275.41 29.63 274.26 30.08 273.4 30.98C272.56 31.88 272.14 33.19 272.14 34.91V44H269.41V21.8H272.14V29.9C272.68 29.06 273.42 28.41 274.36 27.95C275.32 27.49 276.39 27.26 277.57 27.26ZM292.079 30.23C292.559 29.29 293.239 28.56 294.119 28.04C295.019 27.52 296.109 27.26 297.389 27.26V30.08H296.669C293.609 30.08 292.079 31.74 292.079 35.06V44H289.349V27.56H292.079V30.23ZM316.29 35.15C316.29 35.67 316.26 36.22 316.2 36.8H303.06C303.16 38.42 303.71 39.69 304.71 40.61C305.73 41.51 306.96 41.96 308.4 41.96C309.58 41.96 310.56 41.69 311.34 41.15C312.14 40.59 312.7 39.85 313.02 38.93H315.96C315.52 40.51 314.64 41.8 313.32 42.8C312 43.78 310.36 44.27 308.4 44.27C306.84 44.27 305.44 43.92 304.2 43.22C302.98 42.52 302.02 41.53 301.32 40.25C300.62 38.95 300.27 37.45 300.27 35.75C300.27 34.05 300.61 32.56 301.29 31.28C301.97 30 302.92 29.02 304.14 28.34C305.38 27.64 306.8 27.29 308.4 27.29C309.96 27.29 311.34 27.63 312.54 28.31C313.74 28.99 314.66 29.93 315.3 31.13C315.96 32.31 316.29 33.65 316.29 35.15ZM313.47 34.58C313.47 33.54 313.24 32.65 312.78 31.91C312.32 31.15 311.69 30.58 310.89 30.2C310.11 29.8 309.24 29.6 308.28 29.6C306.9 29.6 305.72 30.04 304.74 30.92C303.78 31.8 303.23 33.02 303.09 34.58H313.47ZM328.654 27.26C330.654 27.26 332.274 27.87 333.514 29.09C334.754 30.29 335.374 32.03 335.374 34.31V44H332.674V34.7C332.674 33.06 332.264 31.81 331.444 30.95C330.624 30.07 329.504 29.63 328.084 29.63C326.644 29.63 325.494 30.08 324.634 30.98C323.794 31.88 323.374 33.19 323.374 34.91V44H320.644V27.56H323.374V29.9C323.914 29.06 324.644 28.41 325.564 27.95C326.504 27.49 327.534 27.26 328.654 27.26ZM344.123 23.09L343.793 38.09H341.513L341.183 23.09H344.123ZM342.773 44.18C342.253 44.18 341.813 44 341.453 43.64C341.093 43.28 340.913 42.84 340.913 42.32C340.913 41.8 341.093 41.36 341.453 41C341.813 40.64 342.253 40.46 342.773 40.46C343.273 40.46 343.693 40.64 344.033 41C344.393 41.36 344.573 41.8 344.573 42.32C344.573 42.84 344.393 43.28 344.033 43.64C343.693 44 343.273 44.18 342.773 44.18Z" fill="white"/>
</svg>
