<svg width="557" height="231" viewBox="0 0 557 231" fill="none" xmlns="http://www.w3.org/2000/svg">
<path d="M17 0.595173C20.0033 0.595173 22.6383 1.33184 24.905 2.80517C27.2283 4.27851 29.0133 6.34684 30.26 9.01017C31.5633 11.6735 32.215 14.7052 32.215 18.1052C32.215 23.2052 30.855 27.3135 28.135 30.4302C25.4717 33.5468 21.93 35.1052 17.51 35.1052H10.285C10.0017 35.1052 9.86 35.2468 9.86 35.5302V59.1602C9.86 59.4435 9.74666 59.6985 9.52 59.9252C9.35 60.0952 9.12333 60.1802 8.84 60.1802H1.02C0.736662 60.1802 0.481662 60.0952 0.254995 59.9252C0.0849953 59.6985 -4.61936e-06 59.4435 -4.61936e-06 59.1602V1.61517C-4.61936e-06 1.33184 0.0849953 1.10517 0.254995 0.935174C0.481662 0.708506 0.736662 0.595173 1.02 0.595173H17ZM15.385 27.3702C17.4817 27.3702 19.1533 26.5768 20.4 24.9902C21.7033 23.3468 22.355 21.1368 22.355 18.3602C22.355 15.5268 21.7033 13.2885 20.4 11.6452C19.1533 9.94517 17.4817 9.09517 15.385 9.09517H10.285C10.0017 9.09517 9.86 9.23684 9.86 9.52017V26.9452C9.86 27.2285 10.0017 27.3702 10.285 27.3702H15.385ZM67.3227 1.70017C67.3227 1.41684 67.4077 1.19017 67.5777 1.02017C67.8043 0.793505 68.0593 0.680172 68.3427 0.680172H76.0777C76.361 0.680172 76.5877 0.793505 76.7577 1.02017C76.9843 1.19017 77.0977 1.41684 77.0977 1.70017V59.1602C77.0977 59.4435 76.9843 59.6985 76.7577 59.9252C76.5877 60.0952 76.361 60.1802 76.0777 60.1802H67.1527C66.586 60.1802 66.2177 59.8968 66.0477 59.3302L53.3827 23.2902C53.326 23.1202 53.2127 23.0635 53.0427 23.1202C52.9293 23.1202 52.8727 23.2052 52.8727 23.3752L52.9577 59.1602C52.9577 59.4435 52.8443 59.6985 52.6177 59.9252C52.4477 60.0952 52.221 60.1802 51.9377 60.1802H44.2027C43.9193 60.1802 43.6643 60.0952 43.4377 59.9252C43.2677 59.6985 43.1827 59.4435 43.1827 59.1602V1.70017C43.1827 1.41684 43.2677 1.19017 43.4377 1.02017C43.6643 0.793505 43.9193 0.680172 44.2027 0.680172H52.9577C53.5243 0.680172 53.8927 0.963505 54.0627 1.53017L66.8127 37.3152C66.8693 37.4852 66.9543 37.5702 67.0677 37.5702C67.2377 37.5135 67.3227 37.4002 67.3227 37.2302V1.70017ZM120.179 8.16017C120.179 8.4435 120.065 8.6985 119.839 8.92517C119.669 9.09517 119.442 9.18017 119.159 9.18017H100.799C100.515 9.18017 100.374 9.32184 100.374 9.60517V25.6702C100.374 25.9535 100.515 26.0952 100.799 26.0952H111.679C111.962 26.0952 112.189 26.2085 112.359 26.4352C112.585 26.6052 112.699 26.8318 112.699 27.1152V33.6602C112.699 33.9435 112.585 34.1985 112.359 34.4252C112.189 34.5952 111.962 34.6802 111.679 34.6802H100.799C100.515 34.6802 100.374 34.8218 100.374 35.1052V51.2552C100.374 51.5385 100.515 51.6802 100.799 51.6802H119.159C119.442 51.6802 119.669 51.7935 119.839 52.0202C120.065 52.1902 120.179 52.4168 120.179 52.7002V59.1602C120.179 59.4435 120.065 59.6985 119.839 59.9252C119.669 60.0952 119.442 60.1802 119.159 60.1802H91.5337C91.2504 60.1802 90.9954 60.0952 90.7687 59.9252C90.5987 59.6985 90.5137 59.4435 90.5137 59.1602V1.70017C90.5137 1.41684 90.5987 1.19017 90.7687 1.02017C90.9954 0.793505 91.2504 0.680172 91.5337 0.680172H119.159C119.442 0.680172 119.669 0.793505 119.839 1.02017C120.065 1.19017 120.179 1.41684 120.179 1.70017V8.16017ZM147.427 60.8602C142.554 60.8602 138.644 59.3018 135.697 56.1852C132.807 53.0118 131.362 48.8468 131.362 43.6902V1.70017C131.362 1.41684 131.447 1.19017 131.617 1.02017C131.844 0.793505 132.099 0.680172 132.382 0.680172H140.202C140.486 0.680172 140.712 0.793505 140.882 1.02017C141.109 1.19017 141.222 1.41684 141.222 1.70017V44.7102C141.222 46.9768 141.789 48.8185 142.922 50.2352C144.056 51.6518 145.557 52.3602 147.427 52.3602C149.297 52.3602 150.799 51.6518 151.932 50.2352C153.066 48.8185 153.632 46.9768 153.632 44.7102V1.70017C153.632 1.41684 153.717 1.19017 153.887 1.02017C154.114 0.793505 154.369 0.680172 154.652 0.680172H162.472C162.756 0.680172 162.982 0.793505 163.152 1.02017C163.379 1.19017 163.492 1.41684 163.492 1.70017V43.6902C163.492 48.8468 162.019 53.0118 159.072 56.1852C156.126 59.3018 152.244 60.8602 147.427 60.8602ZM203.233 1.36017C203.516 0.906839 203.941 0.680172 204.508 0.680172H212.328C212.611 0.680172 212.838 0.793505 213.008 1.02017C213.235 1.19017 213.348 1.41684 213.348 1.70017V59.1602C213.348 59.4435 213.235 59.6985 213.008 59.9252C212.838 60.0952 212.611 60.1802 212.328 60.1802H204.508C204.225 60.1802 203.97 60.0952 203.743 59.9252C203.573 59.6985 203.488 59.4435 203.488 59.1602V19.0402C203.488 18.8135 203.431 18.7002 203.318 18.7002C203.205 18.7002 203.091 18.7852 202.978 18.9552L195.583 32.3852C195.3 32.8385 195.045 33.0652 194.818 33.0652C194.591 33.0652 194.336 32.8385 194.053 32.3852L186.658 18.9552C186.545 18.7852 186.431 18.7002 186.318 18.7002C186.205 18.7002 186.148 18.8135 186.148 19.0402V59.1602C186.148 59.4435 186.035 59.6985 185.808 59.9252C185.638 60.0952 185.411 60.1802 185.128 60.1802H177.308C177.025 60.1802 176.77 60.0952 176.543 59.9252C176.373 59.6985 176.288 59.4435 176.288 59.1602V1.70017C176.288 1.41684 176.373 1.19017 176.543 1.02017C176.77 0.793505 177.025 0.680172 177.308 0.680172H185.128C185.695 0.680172 186.12 0.906839 186.403 1.36017L194.648 15.8952C194.818 16.1218 194.988 16.1218 195.158 15.8952L203.233 1.36017ZM241.745 60.8602C236.872 60.8602 232.934 59.3868 229.93 56.4402C226.984 53.4935 225.51 49.5835 225.51 44.7102V16.1502C225.51 11.2768 226.984 7.36684 229.93 4.42017C232.934 1.47351 236.872 0.000175416 241.745 0.000175416C246.619 0.000175416 250.557 1.47351 253.56 4.42017C256.564 7.36684 258.065 11.2768 258.065 16.1502V44.7102C258.065 49.5835 256.564 53.4935 253.56 56.4402C250.557 59.3868 246.619 60.8602 241.745 60.8602ZM241.745 52.3602C243.672 52.3602 245.23 51.7085 246.42 50.4052C247.61 49.0452 248.205 47.2885 248.205 45.1352V15.7252C248.205 13.5718 247.61 11.8435 246.42 10.5402C245.23 9.18017 243.672 8.50017 241.745 8.50017C239.819 8.50017 238.26 9.18017 237.07 10.5402C235.937 11.8435 235.37 13.5718 235.37 15.7252V45.1352C235.37 47.2885 235.937 49.0452 237.07 50.4052C238.26 51.7085 239.819 52.3602 241.745 52.3602ZM271.478 60.1802C271.195 60.1802 270.94 60.0952 270.713 59.9252C270.543 59.6985 270.458 59.4435 270.458 59.1602V1.70017C270.458 1.41684 270.543 1.19017 270.713 1.02017C270.94 0.793505 271.195 0.680172 271.478 0.680172H279.298C279.581 0.680172 279.808 0.793505 279.978 1.02017C280.205 1.19017 280.318 1.41684 280.318 1.70017V25.1602C280.318 25.3868 280.375 25.5285 280.488 25.5852C280.601 25.5852 280.715 25.5002 280.828 25.3302L293.578 1.44517C293.861 0.935172 294.286 0.680172 294.853 0.680172H303.268C303.665 0.680172 303.92 0.793505 304.033 1.02017C304.146 1.24684 304.118 1.53017 303.948 1.87017L291.198 25.7552C291.141 25.9818 291.113 26.1518 291.113 26.2652L304.883 58.9902C304.94 59.1035 304.968 59.2735 304.968 59.5002C304.968 59.9535 304.685 60.1802 304.118 60.1802H295.703C295.08 60.1802 294.683 59.9252 294.513 59.4152L284.483 34.8502C284.426 34.6802 284.341 34.6235 284.228 34.6802C284.115 34.6802 284.001 34.7368 283.888 34.8502L280.488 40.5452C280.375 40.7718 280.318 40.9418 280.318 41.0552V59.1602C280.318 59.4435 280.205 59.6985 279.978 59.9252C279.808 60.0952 279.581 60.1802 279.298 60.1802H271.478ZM329.103 60.8602C324.229 60.8602 320.291 59.3868 317.288 56.4402C314.341 53.4935 312.868 49.5835 312.868 44.7102V16.1502C312.868 11.2768 314.341 7.36684 317.288 4.42017C320.291 1.47351 324.229 0.000175416 329.103 0.000175416C333.976 0.000175416 337.914 1.47351 340.918 4.42017C343.921 7.36684 345.423 11.2768 345.423 16.1502V44.7102C345.423 49.5835 343.921 53.4935 340.918 56.4402C337.914 59.3868 333.976 60.8602 329.103 60.8602ZM329.103 52.3602C331.029 52.3602 332.588 51.7085 333.778 50.4052C334.968 49.0452 335.563 47.2885 335.563 45.1352V15.7252C335.563 13.5718 334.968 11.8435 333.778 10.5402C332.588 9.18017 331.029 8.50017 329.103 8.50017C327.176 8.50017 325.618 9.18017 324.428 10.5402C323.294 11.8435 322.728 13.5718 322.728 15.7252V45.1352C322.728 47.2885 323.294 49.0452 324.428 50.4052C325.618 51.7085 327.176 52.3602 329.103 52.3602ZM358.835 60.1802C358.552 60.1802 358.297 60.0952 358.07 59.9252C357.9 59.6985 357.815 59.4435 357.815 59.1602V1.70017C357.815 1.41684 357.9 1.19017 358.07 1.02017C358.297 0.793505 358.552 0.680172 358.835 0.680172H366.655C366.939 0.680172 367.165 0.793505 367.335 1.02017C367.562 1.19017 367.675 1.41684 367.675 1.70017V25.1602C367.675 25.3868 367.732 25.5285 367.845 25.5852C367.959 25.5852 368.072 25.5002 368.185 25.3302L380.935 1.44517C381.219 0.935172 381.644 0.680172 382.21 0.680172H390.625C391.022 0.680172 391.277 0.793505 391.39 1.02017C391.504 1.24684 391.475 1.53017 391.305 1.87017L378.555 25.7552C378.499 25.9818 378.47 26.1518 378.47 26.2652L392.24 58.9902C392.297 59.1035 392.325 59.2735 392.325 59.5002C392.325 59.9535 392.042 60.1802 391.475 60.1802H383.06C382.437 60.1802 382.04 59.9252 381.87 59.4152L371.84 34.8502C371.784 34.6802 371.699 34.6235 371.585 34.6802C371.472 34.6802 371.359 34.7368 371.245 34.8502L367.845 40.5452C367.732 40.7718 367.675 40.9418 367.675 41.0552V59.1602C367.675 59.4435 367.562 59.6985 367.335 59.9252C367.165 60.0952 366.939 60.1802 366.655 60.1802H358.835ZM403.593 60.1802C403.31 60.1802 403.055 60.0952 402.828 59.9252C402.658 59.6985 402.573 59.4435 402.573 59.1602V1.70017C402.573 1.41684 402.658 1.19017 402.828 1.02017C403.055 0.793505 403.31 0.680172 403.593 0.680172H411.413C411.697 0.680172 411.923 0.793505 412.093 1.02017C412.32 1.19017 412.433 1.41684 412.433 1.70017V25.1602C412.433 25.3868 412.49 25.5285 412.603 25.5852C412.717 25.5852 412.83 25.5002 412.943 25.3302L425.693 1.44517C425.977 0.935172 426.402 0.680172 426.968 0.680172H435.383C435.78 0.680172 436.035 0.793505 436.148 1.02017C436.262 1.24684 436.233 1.53017 436.063 1.87017L423.313 25.7552C423.257 25.9818 423.228 26.1518 423.228 26.2652L436.998 58.9902C437.055 59.1035 437.083 59.2735 437.083 59.5002C437.083 59.9535 436.8 60.1802 436.233 60.1802H427.818C427.195 60.1802 426.798 59.9252 426.628 59.4152L416.598 34.8502C416.542 34.6802 416.457 34.6235 416.343 34.6802C416.23 34.6802 416.117 34.7368 416.003 34.8502L412.603 40.5452C412.49 40.7718 412.433 40.9418 412.433 41.0552V59.1602C412.433 59.4435 412.32 59.6985 412.093 59.9252C411.923 60.0952 411.697 60.1802 411.413 60.1802H403.593ZM476.996 8.16017C476.996 8.4435 476.883 8.6985 476.656 8.92517C476.486 9.09517 476.259 9.18017 475.976 9.18017H457.616C457.333 9.18017 457.191 9.32184 457.191 9.60517V25.6702C457.191 25.9535 457.333 26.0952 457.616 26.0952H468.496C468.779 26.0952 469.006 26.2085 469.176 26.4352C469.403 26.6052 469.516 26.8318 469.516 27.1152V33.6602C469.516 33.9435 469.403 34.1985 469.176 34.4252C469.006 34.5952 468.779 34.6802 468.496 34.6802H457.616C457.333 34.6802 457.191 34.8218 457.191 35.1052V51.2552C457.191 51.5385 457.333 51.6802 457.616 51.6802H475.976C476.259 51.6802 476.486 51.7935 476.656 52.0202C476.883 52.1902 476.996 52.4168 476.996 52.7002V59.1602C476.996 59.4435 476.883 59.6985 476.656 59.9252C476.486 60.0952 476.259 60.1802 475.976 60.1802H448.351C448.068 60.1802 447.813 60.0952 447.586 59.9252C447.416 59.6985 447.331 59.4435 447.331 59.1602V1.70017C447.331 1.41684 447.416 1.19017 447.586 1.02017C447.813 0.793505 448.068 0.680172 448.351 0.680172H475.976C476.259 0.680172 476.486 0.793505 476.656 1.02017C476.883 1.19017 476.996 1.41684 476.996 1.70017V8.16017ZM512.66 1.70017C512.66 1.41684 512.745 1.19017 512.915 1.02017C513.141 0.793505 513.396 0.680172 513.68 0.680172H521.415C521.698 0.680172 521.925 0.793505 522.095 1.02017C522.321 1.19017 522.435 1.41684 522.435 1.70017V59.1602C522.435 59.4435 522.321 59.6985 522.095 59.9252C521.925 60.0952 521.698 60.1802 521.415 60.1802H512.49C511.923 60.1802 511.555 59.8968 511.385 59.3302L498.72 23.2902C498.663 23.1202 498.55 23.0635 498.38 23.1202C498.266 23.1202 498.21 23.2052 498.21 23.3752L498.295 59.1602C498.295 59.4435 498.181 59.6985 497.955 59.9252C497.785 60.0952 497.558 60.1802 497.275 60.1802H489.54C489.256 60.1802 489.001 60.0952 488.775 59.9252C488.605 59.6985 488.52 59.4435 488.52 59.1602V1.70017C488.52 1.41684 488.605 1.19017 488.775 1.02017C489.001 0.793505 489.256 0.680172 489.54 0.680172H498.295C498.861 0.680172 499.23 0.963505 499.4 1.53017L512.15 37.3152C512.206 37.4852 512.291 37.5702 512.405 37.5702C512.575 37.5135 512.66 37.4002 512.66 37.2302V1.70017ZM534.576 38.8452C534.292 38.8452 534.037 38.7602 533.811 38.5902C533.641 38.3635 533.556 38.1085 533.556 37.8252V31.3652C533.556 31.0818 533.641 30.8552 533.811 30.6852C534.037 30.4585 534.292 30.3452 534.576 30.3452H555.571C555.854 30.3452 556.081 30.4585 556.251 30.6852C556.477 30.8552 556.591 31.0818 556.591 31.3652V37.8252C556.591 38.1085 556.477 38.3635 556.251 38.5902C556.081 38.7602 555.854 38.8452 555.571 38.8452H534.576ZM29.75 93.1602C29.75 93.4435 29.6367 93.6985 29.41 93.9252C29.24 94.0952 29.0133 94.1802 28.73 94.1802H10.37C10.0867 94.1802 9.945 94.3218 9.945 94.6052V110.67C9.945 110.954 10.0867 111.095 10.37 111.095H21.25C21.5333 111.095 21.76 111.209 21.93 111.435C22.1567 111.605 22.27 111.832 22.27 112.115V118.66C22.27 118.944 22.1567 119.199 21.93 119.425C21.76 119.595 21.5333 119.68 21.25 119.68H10.37C10.0867 119.68 9.945 119.822 9.945 120.105V136.255C9.945 136.539 10.0867 136.68 10.37 136.68H28.73C29.0133 136.68 29.24 136.794 29.41 137.02C29.6367 137.19 29.75 137.417 29.75 137.7V144.16C29.75 144.444 29.6367 144.699 29.41 144.925C29.24 145.095 29.0133 145.18 28.73 145.18H1.105C0.821662 145.18 0.566662 145.095 0.339995 144.925C0.169995 144.699 0.0849952 144.444 0.0849952 144.16V86.7002C0.0849952 86.4168 0.169995 86.1902 0.339995 86.0202C0.566662 85.7935 0.821662 85.6802 1.105 85.6802H28.73C29.0133 85.6802 29.24 85.7935 29.41 86.0202C29.6367 86.1902 29.75 86.4168 29.75 86.7002V93.1602ZM64.8185 145.18C64.2518 145.18 63.8835 144.897 63.7135 144.33L56.4885 119.935C56.3751 119.709 56.2335 119.595 56.0635 119.595H51.5585C51.2751 119.595 51.1335 119.737 51.1335 120.02V144.16C51.1335 144.444 51.0201 144.699 50.7935 144.925C50.6235 145.095 50.3968 145.18 50.1135 145.18H42.2935C42.0101 145.18 41.7551 145.095 41.5285 144.925C41.3585 144.699 41.2735 144.444 41.2735 144.16V86.7002C41.2735 86.4168 41.3585 86.1902 41.5285 86.0202C41.7551 85.7935 42.0101 85.6802 42.2935 85.6802H58.2735C61.2768 85.6802 63.9118 86.4168 66.1785 87.8902C68.5018 89.3068 70.2868 91.3468 71.5335 94.0102C72.8368 96.6168 73.4885 99.6202 73.4885 103.02C73.4885 106.534 72.8085 109.565 71.4485 112.115C70.0885 114.665 68.1901 116.592 65.7535 117.895C65.5268 117.952 65.4418 118.122 65.4985 118.405L73.8285 143.99C73.8851 144.104 73.9135 144.245 73.9135 144.415C73.9135 144.925 73.6018 145.18 72.9785 145.18H64.8185ZM51.5585 94.1802C51.2751 94.1802 51.1335 94.3218 51.1335 94.6052V111.52C51.1335 111.804 51.2751 111.945 51.5585 111.945H56.7435C58.7835 111.945 60.4268 111.152 61.6735 109.565C62.9768 107.979 63.6285 105.825 63.6285 103.105C63.6285 100.385 62.9768 98.2318 61.6735 96.6452C60.4268 95.0018 58.7835 94.1802 56.7435 94.1802H51.5585ZM85.7232 145.18C85.4398 145.18 85.1848 145.095 84.9582 144.925C84.7882 144.699 84.7032 144.444 84.7032 144.16V86.7002C84.7032 86.4168 84.7882 86.1902 84.9582 86.0202C85.1848 85.7935 85.4398 85.6802 85.7232 85.6802H93.5432C93.8265 85.6802 94.0532 85.7935 94.2232 86.0202C94.4498 86.1902 94.5632 86.4168 94.5632 86.7002V110.16C94.5632 110.387 94.6198 110.529 94.7332 110.585C94.8465 110.585 94.9598 110.5 95.0732 110.33L107.823 86.4452C108.106 85.9352 108.531 85.6802 109.098 85.6802H117.513C117.91 85.6802 118.165 85.7935 118.278 86.0202C118.391 86.2468 118.363 86.5302 118.193 86.8702L105.443 110.755C105.386 110.982 105.358 111.152 105.358 111.265L119.128 143.99C119.185 144.104 119.213 144.274 119.213 144.5C119.213 144.954 118.93 145.18 118.363 145.18H109.948C109.325 145.18 108.928 144.925 108.758 144.415L98.7282 119.85C98.6715 119.68 98.5865 119.624 98.4732 119.68C98.3598 119.68 98.2465 119.737 98.1332 119.85L94.7332 125.545C94.6198 125.772 94.5632 125.942 94.5632 126.055V144.16C94.5632 144.444 94.4498 144.699 94.2232 144.925C94.0532 145.095 93.8265 145.18 93.5432 145.18H85.7232ZM153.006 145.18C152.439 145.18 152.071 144.897 151.901 144.33L144.676 119.935C144.563 119.709 144.421 119.595 144.251 119.595H139.746C139.463 119.595 139.321 119.737 139.321 120.02V144.16C139.321 144.444 139.208 144.699 138.981 144.925C138.811 145.095 138.584 145.18 138.301 145.18H130.481C130.198 145.18 129.943 145.095 129.716 144.925C129.546 144.699 129.461 144.444 129.461 144.16V86.7002C129.461 86.4168 129.546 86.1902 129.716 86.0202C129.943 85.7935 130.198 85.6802 130.481 85.6802H146.461C149.464 85.6802 152.099 86.4168 154.366 87.8902C156.689 89.3068 158.474 91.3468 159.721 94.0102C161.024 96.6168 161.676 99.6202 161.676 103.02C161.676 106.534 160.996 109.565 159.636 112.115C158.276 114.665 156.378 116.592 153.941 117.895C153.714 117.952 153.629 118.122 153.686 118.405L162.016 143.99C162.073 144.104 162.101 144.245 162.101 144.415C162.101 144.925 161.789 145.18 161.166 145.18H153.006ZM139.746 94.1802C139.463 94.1802 139.321 94.3218 139.321 94.6052V111.52C139.321 111.804 139.463 111.945 139.746 111.945H144.931C146.971 111.945 148.614 111.152 149.861 109.565C151.164 107.979 151.816 105.825 151.816 103.105C151.816 100.385 151.164 98.2318 149.861 96.6452C148.614 95.0018 146.971 94.1802 144.931 94.1802H139.746ZM197.695 145.18C197.015 145.18 196.646 144.869 196.59 144.245L194.975 135.32C194.975 135.037 194.805 134.895 194.465 134.895H182.055C181.715 134.895 181.545 135.037 181.545 135.32L179.93 144.245C179.873 144.869 179.505 145.18 178.825 145.18H171.09C170.296 145.18 169.985 144.812 170.155 144.075L182.735 86.6152C182.848 85.9918 183.216 85.6802 183.84 85.6802H192.85C193.473 85.6802 193.841 85.9918 193.955 86.6152L206.535 144.075V144.415C206.535 144.925 206.223 145.18 205.6 145.18H197.695ZM183.075 126.735C183.018 127.019 183.16 127.16 183.5 127.16H192.935C193.275 127.16 193.416 127.019 193.36 126.735L188.43 99.8752C188.373 99.7052 188.288 99.6202 188.175 99.6202C188.061 99.6202 187.976 99.7052 187.92 99.8752L183.075 126.735ZM240.709 86.7002C240.709 86.4168 240.794 86.1902 240.964 86.0202C241.191 85.7935 241.446 85.6802 241.729 85.6802H249.464C249.748 85.6802 249.974 85.7935 250.144 86.0202C250.371 86.1902 250.484 86.4168 250.484 86.7002V144.16C250.484 144.444 250.371 144.699 250.144 144.925C249.974 145.095 249.748 145.18 249.464 145.18H240.539C239.973 145.18 239.604 144.897 239.434 144.33L226.769 108.29C226.713 108.12 226.599 108.064 226.429 108.12C226.316 108.12 226.259 108.205 226.259 108.375L226.344 144.16C226.344 144.444 226.231 144.699 226.004 144.925C225.834 145.095 225.608 145.18 225.324 145.18H217.589C217.306 145.18 217.051 145.095 216.824 144.925C216.654 144.699 216.569 144.444 216.569 144.16V86.7002C216.569 86.4168 216.654 86.1902 216.824 86.0202C217.051 85.7935 217.306 85.6802 217.589 85.6802H226.344C226.911 85.6802 227.279 85.9635 227.449 86.5302L240.199 122.315C240.256 122.485 240.341 122.57 240.454 122.57C240.624 122.514 240.709 122.4 240.709 122.23V86.7002ZM264.92 145.18C264.637 145.18 264.382 145.095 264.155 144.925C263.985 144.699 263.9 144.444 263.9 144.16V86.7002C263.9 86.4168 263.985 86.1902 264.155 86.0202C264.382 85.7935 264.637 85.6802 264.92 85.6802H272.74C273.024 85.6802 273.25 85.7935 273.42 86.0202C273.647 86.1902 273.76 86.4168 273.76 86.7002V110.16C273.76 110.387 273.817 110.529 273.93 110.585C274.044 110.585 274.157 110.5 274.27 110.33L287.02 86.4452C287.304 85.9352 287.729 85.6802 288.295 85.6802H296.71C297.107 85.6802 297.362 85.7935 297.475 86.0202C297.589 86.2468 297.56 86.5302 297.39 86.8702L284.64 110.755C284.584 110.982 284.555 111.152 284.555 111.265L298.325 143.99C298.382 144.104 298.41 144.274 298.41 144.5C298.41 144.954 298.127 145.18 297.56 145.18H289.145C288.522 145.18 288.125 144.925 287.955 144.415L277.925 119.85C277.869 119.68 277.784 119.624 277.67 119.68C277.557 119.68 277.444 119.737 277.33 119.85L273.93 125.545C273.817 125.772 273.76 125.942 273.76 126.055V144.16C273.76 144.444 273.647 144.699 273.42 144.925C273.25 145.095 273.024 145.18 272.74 145.18H264.92ZM324.383 145.86C319.51 145.86 315.6 144.302 312.653 141.185C309.763 138.012 308.318 133.847 308.318 128.69V86.7002C308.318 86.4168 308.403 86.1902 308.573 86.0202C308.8 85.7935 309.055 85.6802 309.338 85.6802H317.158C317.442 85.6802 317.668 85.7935 317.838 86.0202C318.065 86.1902 318.178 86.4168 318.178 86.7002V129.71C318.178 131.977 318.745 133.819 319.878 135.235C321.012 136.652 322.513 137.36 324.383 137.36C326.253 137.36 327.755 136.652 328.888 135.235C330.022 133.819 330.588 131.977 330.588 129.71V86.7002C330.588 86.4168 330.673 86.1902 330.843 86.0202C331.07 85.7935 331.325 85.6802 331.608 85.6802H339.428C339.712 85.6802 339.938 85.7935 340.108 86.0202C340.335 86.1902 340.448 86.4168 340.448 86.7002V128.69C340.448 133.847 338.975 138.012 336.028 141.185C333.082 144.302 329.2 145.86 324.383 145.86ZM376.892 86.7002C376.892 86.4168 376.977 86.1902 377.147 86.0202C377.374 85.7935 377.629 85.6802 377.912 85.6802H385.647C385.93 85.6802 386.157 85.7935 386.327 86.0202C386.554 86.1902 386.667 86.4168 386.667 86.7002V144.16C386.667 144.444 386.554 144.699 386.327 144.925C386.157 145.095 385.93 145.18 385.647 145.18H376.722C376.155 145.18 375.787 144.897 375.617 144.33L362.952 108.29C362.895 108.12 362.782 108.064 362.612 108.12C362.499 108.12 362.442 108.205 362.442 108.375L362.527 144.16C362.527 144.444 362.414 144.699 362.187 144.925C362.017 145.095 361.79 145.18 361.507 145.18H353.772C353.489 145.18 353.234 145.095 353.007 144.925C352.837 144.699 352.752 144.444 352.752 144.16V86.7002C352.752 86.4168 352.837 86.1902 353.007 86.0202C353.234 85.7935 353.489 85.6802 353.772 85.6802H362.527C363.094 85.6802 363.462 85.9635 363.632 86.5302L376.382 122.315C376.439 122.485 376.524 122.57 376.637 122.57C376.807 122.514 376.892 122.4 376.892 122.23V86.7002ZM415.043 145.86C410.226 145.86 406.345 144.472 403.398 141.695C400.508 138.862 399.063 135.122 399.063 130.475V100.385C399.063 95.7385 400.508 92.0268 403.398 89.2502C406.345 86.4168 410.226 85.0002 415.043 85.0002C419.86 85.0002 423.741 86.4168 426.688 89.2502C429.691 92.0268 431.193 95.7668 431.193 100.47V103.785C431.193 104.069 431.08 104.324 430.853 104.55C430.683 104.72 430.456 104.805 430.173 104.805H422.353C422.07 104.805 421.815 104.72 421.588 104.55C421.418 104.324 421.333 104.069 421.333 103.785V100.3C421.333 98.2602 420.738 96.6168 419.548 95.3702C418.415 94.1235 416.913 93.5002 415.043 93.5002C413.173 93.5002 411.671 94.1235 410.538 95.3702C409.405 96.6168 408.838 98.2602 408.838 100.3V130.56C408.838 132.6 409.405 134.244 410.538 135.49C411.671 136.737 413.173 137.36 415.043 137.36C416.913 137.36 418.415 136.737 419.548 135.49C420.738 134.244 421.333 132.6 421.333 130.56V122.4C421.333 122.117 421.191 121.975 420.908 121.975H415.723C415.44 121.975 415.185 121.89 414.958 121.72C414.788 121.494 414.703 121.239 414.703 120.955V114.75C414.703 114.467 414.788 114.24 414.958 114.07C415.185 113.844 415.44 113.73 415.723 113.73H430.173C430.456 113.73 430.683 113.844 430.853 114.07C431.08 114.24 431.193 114.467 431.193 114.75V130.475C431.193 135.122 429.691 138.862 426.688 141.695C423.741 144.472 419.86 145.86 415.043 145.86ZM473.261 93.1602C473.261 93.4435 473.147 93.6985 472.921 93.9252C472.751 94.0952 472.524 94.1802 472.241 94.1802H453.881C453.597 94.1802 453.456 94.3218 453.456 94.6052V110.67C453.456 110.954 453.597 111.095 453.881 111.095H464.761C465.044 111.095 465.271 111.209 465.441 111.435C465.667 111.605 465.781 111.832 465.781 112.115V118.66C465.781 118.944 465.667 119.199 465.441 119.425C465.271 119.595 465.044 119.68 464.761 119.68H453.881C453.597 119.68 453.456 119.822 453.456 120.105V136.255C453.456 136.539 453.597 136.68 453.881 136.68H472.241C472.524 136.68 472.751 136.794 472.921 137.02C473.147 137.19 473.261 137.417 473.261 137.7V144.16C473.261 144.444 473.147 144.699 472.921 144.925C472.751 145.095 472.524 145.18 472.241 145.18H444.616C444.332 145.18 444.077 145.095 443.851 144.925C443.681 144.699 443.596 144.444 443.596 144.16V86.7002C443.596 86.4168 443.681 86.1902 443.851 86.0202C444.077 85.7935 444.332 85.6802 444.616 85.6802H472.241C472.524 85.6802 472.751 85.7935 472.921 86.0202C473.147 86.1902 473.261 86.4168 473.261 86.7002V93.1602ZM508.924 86.7002C508.924 86.4168 509.009 86.1902 509.179 86.0202C509.406 85.7935 509.661 85.6802 509.944 85.6802H517.679C517.963 85.6802 518.189 85.7935 518.359 86.0202C518.586 86.1902 518.699 86.4168 518.699 86.7002V144.16C518.699 144.444 518.586 144.699 518.359 144.925C518.189 145.095 517.963 145.18 517.679 145.18H508.754C508.188 145.18 507.819 144.897 507.649 144.33L494.984 108.29C494.928 108.12 494.814 108.064 494.644 108.12C494.531 108.12 494.474 108.205 494.474 108.375L494.559 144.16C494.559 144.444 494.446 144.699 494.219 144.925C494.049 145.095 493.823 145.18 493.539 145.18H485.804C485.521 145.18 485.266 145.095 485.039 144.925C484.869 144.699 484.784 144.444 484.784 144.16V86.7002C484.784 86.4168 484.869 86.1902 485.039 86.0202C485.266 85.7935 485.521 85.6802 485.804 85.6802H494.559C495.126 85.6802 495.494 85.9635 495.664 86.5302L508.414 122.315C508.471 122.485 508.556 122.57 508.669 122.57C508.839 122.514 508.924 122.4 508.924 122.23V86.7002ZM1.105 230.18C0.821662 230.18 0.566662 230.095 0.339995 229.925C0.169995 229.699 0.0849952 229.444 0.0849952 229.16V171.7C0.0849952 171.417 0.169995 171.19 0.339995 171.02C0.566662 170.794 0.821662 170.68 1.105 170.68H8.925C9.20833 170.68 9.435 170.794 9.605 171.02C9.83166 171.19 9.945 171.417 9.945 171.7V229.16C9.945 229.444 9.83166 229.699 9.605 229.925C9.435 230.095 9.20833 230.18 8.925 230.18H1.105ZM50.0338 171.36C50.3171 170.907 50.7421 170.68 51.3088 170.68H59.1288C59.4121 170.68 59.6388 170.794 59.8088 171.02C60.0355 171.19 60.1488 171.417 60.1488 171.7V229.16C60.1488 229.444 60.0355 229.699 59.8088 229.925C59.6388 230.095 59.4121 230.18 59.1288 230.18H51.3088C51.0255 230.18 50.7705 230.095 50.5438 229.925C50.3738 229.699 50.2888 229.444 50.2888 229.16V189.04C50.2888 188.814 50.2321 188.7 50.1188 188.7C50.0055 188.7 49.8921 188.785 49.7788 188.955L42.3838 202.385C42.1005 202.839 41.8455 203.065 41.6188 203.065C41.3921 203.065 41.1371 202.839 40.8538 202.385L33.4588 188.955C33.3455 188.785 33.2321 188.7 33.1188 188.7C33.0055 188.7 32.9488 188.814 32.9488 189.04V229.16C32.9488 229.444 32.8355 229.699 32.6088 229.925C32.4388 230.095 32.2121 230.18 31.9288 230.18H24.1088C23.8255 230.18 23.5705 230.095 23.3438 229.925C23.1738 229.699 23.0888 229.444 23.0888 229.16V171.7C23.0888 171.417 23.1738 171.19 23.3438 171.02C23.5705 170.794 23.8255 170.68 24.1088 170.68H31.9288C32.4955 170.68 32.9205 170.907 33.2038 171.36L41.4488 185.895C41.6188 186.122 41.7888 186.122 41.9588 185.895L50.0338 171.36ZM104.458 230.18C103.778 230.18 103.409 229.869 103.353 229.245L92.0477 171.785L91.9627 171.445C91.9627 170.935 92.2744 170.68 92.8977 170.68H101.058C101.738 170.68 102.106 170.992 102.163 171.615L108.113 207.06C108.169 207.23 108.254 207.315 108.368 207.315C108.481 207.315 108.566 207.23 108.623 207.06L113.978 171.615C114.034 170.992 114.403 170.68 115.083 170.68H121.883C122.563 170.68 122.931 170.992 122.988 171.615L128.768 207.06C128.824 207.23 128.909 207.315 129.023 207.315C129.136 207.315 129.221 207.23 129.278 207.06L134.633 171.615C134.689 170.992 135.058 170.68 135.738 170.68H143.643C144.379 170.68 144.691 171.049 144.578 171.785L133.783 229.245C133.726 229.869 133.358 230.18 132.678 230.18H125.453C124.773 230.18 124.404 229.869 124.348 229.245L118.653 193.12C118.596 192.894 118.511 192.78 118.398 192.78C118.284 192.78 118.199 192.894 118.143 193.12L112.873 229.245C112.816 229.869 112.448 230.18 111.768 230.18H104.458ZM173.871 230.18C173.191 230.18 172.823 229.869 172.766 229.245L171.151 220.32C171.151 220.037 170.981 219.895 170.641 219.895H158.231C157.891 219.895 157.721 220.037 157.721 220.32L156.106 229.245C156.05 229.869 155.681 230.18 155.001 230.18H147.266C146.473 230.18 146.161 229.812 146.331 229.075L158.911 171.615C159.025 170.992 159.393 170.68 160.016 170.68H169.026C169.65 170.68 170.018 170.992 170.131 171.615L182.711 229.075V229.415C182.711 229.925 182.4 230.18 181.776 230.18H173.871ZM159.251 211.735C159.195 212.019 159.336 212.16 159.676 212.16H169.111C169.451 212.16 169.593 212.019 169.536 211.735L164.606 184.875C164.55 184.705 164.465 184.62 164.351 184.62C164.238 184.62 164.153 184.705 164.096 184.875L159.251 211.735ZM216.886 171.7C216.886 171.417 216.971 171.19 217.141 171.02C217.368 170.794 217.623 170.68 217.906 170.68H225.641C225.924 170.68 226.151 170.794 226.321 171.02C226.548 171.19 226.661 171.417 226.661 171.7V229.16C226.661 229.444 226.548 229.699 226.321 229.925C226.151 230.095 225.924 230.18 225.641 230.18H216.716C216.149 230.18 215.781 229.897 215.611 229.33L202.946 193.29C202.889 193.12 202.776 193.064 202.606 193.12C202.493 193.12 202.436 193.205 202.436 193.375L202.521 229.16C202.521 229.444 202.408 229.699 202.181 229.925C202.011 230.095 201.784 230.18 201.501 230.18H193.766C193.483 230.18 193.228 230.095 193.001 229.925C192.831 229.699 192.746 229.444 192.746 229.16V171.7C192.746 171.417 192.831 171.19 193.001 171.02C193.228 170.794 193.483 170.68 193.766 170.68H202.521C203.088 170.68 203.456 170.964 203.626 171.53L216.376 207.315C216.433 207.485 216.518 207.57 216.631 207.57C216.801 207.514 216.886 207.4 216.886 207.23V171.7ZM241.097 230.18C240.814 230.18 240.559 230.095 240.332 229.925C240.162 229.699 240.077 229.444 240.077 229.16V171.7C240.077 171.417 240.162 171.19 240.332 171.02C240.559 170.794 240.814 170.68 241.097 170.68H255.632C260.506 170.68 264.387 172.154 267.277 175.1C270.224 178.047 271.697 181.985 271.697 186.915V213.945C271.697 218.875 270.224 222.814 267.277 225.76C264.387 228.707 260.506 230.18 255.632 230.18H241.097ZM249.937 221.255C249.937 221.539 250.079 221.68 250.362 221.68L255.462 221.595C257.332 221.595 258.834 220.859 259.967 219.385C261.157 217.855 261.781 215.844 261.837 213.35V187.51C261.837 184.96 261.242 182.949 260.052 181.475C258.919 179.945 257.361 179.18 255.377 179.18H250.362C250.079 179.18 249.937 179.322 249.937 179.605V221.255ZM313.753 178.16C313.753 178.444 313.64 178.699 313.413 178.925C313.243 179.095 313.016 179.18 312.733 179.18H294.373C294.09 179.18 293.948 179.322 293.948 179.605V195.67C293.948 195.954 294.09 196.095 294.373 196.095H305.253C305.536 196.095 305.763 196.209 305.933 196.435C306.16 196.605 306.273 196.832 306.273 197.115V203.66C306.273 203.944 306.16 204.199 305.933 204.425C305.763 204.595 305.536 204.68 305.253 204.68H294.373C294.09 204.68 293.948 204.822 293.948 205.105V221.255C293.948 221.539 294.09 221.68 294.373 221.68H312.733C313.016 221.68 313.243 221.794 313.413 222.02C313.64 222.19 313.753 222.417 313.753 222.7V229.16C313.753 229.444 313.64 229.699 313.413 229.925C313.243 230.095 313.016 230.18 312.733 230.18H285.108C284.825 230.18 284.57 230.095 284.343 229.925C284.173 229.699 284.088 229.444 284.088 229.16V171.7C284.088 171.417 284.173 171.19 284.343 171.02C284.57 170.794 284.825 170.68 285.108 170.68H312.733C313.016 170.68 313.243 170.794 313.413 171.02C313.64 171.19 313.753 171.417 313.753 171.7V178.16ZM326.296 230.18C326.013 230.18 325.758 230.095 325.531 229.925C325.361 229.699 325.276 229.444 325.276 229.16V171.7C325.276 171.417 325.361 171.19 325.531 171.02C325.758 170.794 326.013 170.68 326.296 170.68H334.116C334.4 170.68 334.626 170.794 334.796 171.02C335.023 171.19 335.136 171.417 335.136 171.7V221.255C335.136 221.539 335.278 221.68 335.561 221.68H353.921C354.205 221.68 354.431 221.794 354.601 222.02C354.828 222.19 354.941 222.417 354.941 222.7V229.16C354.941 229.444 354.828 229.699 354.601 229.925C354.431 230.095 354.205 230.18 353.921 230.18H326.296Z" fill="#EAE3DA"/>
</svg>
