<svg width="177" height="66" viewBox="0 0 177 66" fill="none" xmlns="http://www.w3.org/2000/svg">
<g clip-path="url(#clip0_2213_6)">
<path d="M16.5136 16.5136C16.5136 7.40263 23.9162 0 33.0271 0C42.138 0 49.5407 7.37551 49.5407 16.5136H16.5136ZM16.5136 49.5136C16.5136 40.4026 23.9162 33 33.0271 33C23.9162 33 16.5136 25.6245 16.5136 16.4864C7.40263 16.4864 0 23.862 0 33C0 42.138 7.40263 49.5136 16.5136 49.5136ZM16.5136 49.5136C16.5136 58.6245 23.9162 66.0271 33.0271 66.0271C42.138 66.0271 49.5407 58.6516 49.5407 49.5136H16.5136ZM33 33C42.1109 33 49.5136 40.4026 49.5136 49.5136C58.6245 49.5136 66.0271 42.138 66.0271 33C66.0271 23.862 58.6245 16.4864 49.5136 16.4864C49.5136 25.5974 42.1109 33 33 33Z" fill="white"/>
<path d="M107.569 16.5133H117.791V49.5133H110.226V27.3054L100.519 49.5133L90.323 27.2783V49.5133H83.2457V16.5133H93.3599L100.654 33.5963L107.569 16.5133ZM144.772 26.2479C144.772 19.7401 139.755 15.9438 133.763 15.9438C127.77 15.9438 121.344 19.4147 121.344 26.1665C121.344 32.0236 127.797 35.0334 131.485 35.9825C133.519 36.5248 138.616 37.0942 138.616 40.7277C138.616 44.3613 135.064 45.1476 132.38 45.1476C128.936 45.1476 126.929 42.7343 127.228 39.1008H120.476C120.232 47.3169 125.818 50.381 132.353 50.5166C139.891 50.6793 145.639 47.4796 145.639 40.2125C145.639 32.9455 139.104 31.7795 134.007 30.0983C132.027 29.4475 128.367 28.8781 128.367 25.5157C128.367 22.6957 130.807 21.3399 133.302 21.3399C136.501 21.3399 138.155 22.9126 138.399 26.2208H144.799M159.035 16.459H148.514V49.4319H159.035C167.766 49.4319 176.66 44.3884 176.66 32.9726C176.66 21.5568 167.793 16.459 159.035 16.459ZM158.574 43.4393H155.672V22.533H158.574C166.6 22.533 169.474 27.7664 169.474 32.9997C169.474 38.2331 166.573 43.4664 158.574 43.4664" fill="white"/>
</g>
<defs>
<clipPath id="clip0_2213_6">
<rect width="176.66" height="66" fill="white"/>
</clipPath>
</defs>
</svg>
